# xmcd
#
# Track frame offsets: 
#        150
#        17699
#        36909
#        54877
#        75364
#        93298
#        114267
#        134520
#        152939
#        172188
#
# Disc length: 2593 seconds
#
# Revision: 1
# Processed by: cddbd v1.5.2PL0 Copyright (c) Steve Scherf et al.
# Submitted via: ExactAudioCopy v0.99pb5
#
DISCID=740a1f0a
DTITLE=Salsa Del Barrio - Sabor A Melao
DYEAR=2006
DGENRE=Salsa
TTITLE0=Tengo
TTITLE1=Montunuendo
TTITLE2=Sabor A Melao 
TTITLE3=Canto A Mi Tierra 
TTITLE4=Fuego A La Jicotea 
TTITLE5=Mi Mundo Tu
TTITLE6=Lo Que Quiere Es Salsa
TTITLE7=La Casa
TTITLE8=Que Es Lo Que Hay
TTITLE9=Maldito Licor
EXTD=YEAR: 2006
EXTT0=
EXTT1=
EXTT2=
EXTT3=
EXTT4=
EXTT5=
EXTT6=
EXTT7=
EXTT8=
EXTT9=
PLAYORDER=
